<?xml version="1.0" encoding="UTF-8" standalone="no"?>
<svg
   version="1.1"
   id="Layer_1"
   x="0px"
   y="0px"
   width="512"
   viewBox="0 0 512 512"
   enable-background="new 0 0 1024 1024"
   xml:space="preserve"
   sodipodi:docname="file.svg"
   inkscape:version="1.4.2 (f4327f4, 2025-05-13)"
   height="512"
   xmlns:inkscape="http://www.inkscape.org/namespaces/inkscape"
   xmlns:sodipodi="http://sodipodi.sourceforge.net/DTD/sodipodi-0.dtd"
   xmlns="http://www.w3.org/2000/svg"
   xmlns:svg="http://www.w3.org/2000/svg"><defs
   id="defs82" /><sodipodi:namedview
   id="namedview82"
   pagecolor="#ffffff"
   bordercolor="#000000"
   borderopacity="0.25"
   inkscape:showpageshadow="2"
   inkscape:pageopacity="0.0"
   inkscape:pagecheckerboard="0"
   inkscape:deskcolor="#d1d1d1"
   inkscape:zoom="0.55726091"
   inkscape:cx="190.21611"
   inkscape:cy="302.37183"
   inkscape:window-width="1920"
   inkscape:window-height="1009"
   inkscape:window-x="1912"
   inkscape:window-y="-8"
   inkscape:window-maximized="1"
   inkscape:current-layer="Layer_1" />

<path
   fill="#78b344"
   opacity="1"
   stroke="none"
   d="m 441.46862,297.16959 c -0.8132,9.25723 -1.83133,18.47454 -6.3354,27.05656 -2.68786,-0.28951 -5.13477,-0.12101 -7.16592,-0.9088 -2.01122,-0.78022 -3.40484,-2.96823 -5.41333,-3.7697 -8.4655,-3.37789 -15.75237,-8.25804 -22.11492,-14.46065 -2.69165,-2.62396 -5.32812,-5.31357 -8.19885,-7.75375 -2.53683,-2.15632 -5.63634,-3.75884 -7.99225,-6.05848 -2.75539,-2.68946 -6.03708,-5.55081 -7.16656,-8.91402 -1.5361,-4.57414 -4.67648,-6.93287 -8.54698,-9.10028 -1.12226,-0.62843 -2.37942,-1.11687 -3.33564,-1.92268 -6.31115,-5.31848 -12.55825,-10.70493 -18.82111,-16.07452 -0.32258,-0.2766 -0.62561,-0.5817 -0.89248,-0.90668 -4.26531,-5.1945 -8.48885,-10.42319 -15.70728,-12.26086 -0.66718,-0.16988 -1.31807,-0.61869 -1.82807,-1.08328 -4.96621,-4.52357 -9.837,-9.14262 -14.87336,-13.59466 -2.25489,-1.99332 -5.18082,-3.37592 -7.18209,-5.54595 -5.57111,-6.04104 -10.81759,-12.34924 -16.40663,-18.79929 1.68729,-3.29115 -0.009,-6.80648 -4.27579,-8.3671 -2.04039,-0.74631 -4.03751,-2.03036 -5.55614,-3.52297 -2.73845,-2.69152 -4.94766,-5.86063 -7.65828,-8.58104 -4.31879,-4.33438 -8.59693,-8.76306 -13.3722,-12.622 -11.76936,-9.51096 -23.7692,-18.76982 -35.78821,-28.0001 -1.88098,-1.44457 -4.34808,-2.20827 -6.54418,-3.28678 -0.15869,0.27488 -0.3174,0.54975 -0.47612,0.82465 -0.52671,-0.92785 -1.05344,-1.8557 -1.58016,-2.78356 4.22968,-5.17778 8.45935,-10.35556 13.07739,-15.38216 4.57486,2.69593 8.76628,5.2335 12.9444,7.79055 1.04566,0.63996 2.17867,1.21897 3.0487,2.03732 4.12946,3.88397 8.1013,7.91976 12.29214,11.74224 2.48281,2.26461 5.13594,4.4093 7.94881,6.29303 3.90592,2.61574 9.12035,3.39844 11.06409,8.68558 0.6308,1.71587 4.11567,2.49561 6.29513,3.70356 -1.43855,3.39987 -3.55827,6.69261 -4.18037,10.22093 -1.50539,8.53802 1.64947,15.96596 9.90095,19.7272 9.18931,4.18872 19.11863,6.9291 29.04512,10.74489 1.27042,1.78516 1.96666,3.41133 3.22239,4.40963 3.19091,2.53669 6.6184,4.8101 9.97697,7.15594 4.12138,2.87865 8.21499,5.7973 12.42548,8.55586 2.53405,1.66021 5.33688,2.95238 7.88882,4.59071 1.88236,1.20843 3.38961,2.99876 5.36477,4.00094 2.11395,1.07261 4.74139,1.23823 6.86449,2.29979 8.06763,4.03392 12.97411,11.71766 20.65521,16.24237 0.32387,0.19081 0.38077,0.7459 0.66216,1.04808 1.21822,1.30807 2.43008,2.62578 3.72347,3.86628 4.43521,4.2539 8.92143,8.46036 13.35445,12.71632 3.99305,3.83358 7.93557,7.7141 11.92312,11.55282 0.28968,0.27882 0.79717,0.59018 1.14882,0.54067 3.44773,-0.48526 4.72713,2.28929 6.85091,3.86855 1.86259,1.38509 4.08896,2.32522 6.04403,3.61179 0.86074,0.56646 1.85891,1.40633 2.0951,2.28904 2.40438,8.98593 4.33407,10.18056 13.5954,8.12401 z"
   id="path2"
   style="stroke-width:0.850718" />
<path
   fill="#73b046"
   opacity="1"
   stroke="none"
   d="m 213.97825,136.88661 c 0.78514,0.7749 1.31187,1.70275 1.83858,2.6306 0.15872,-0.2749 0.31743,-0.54977 0.47612,-0.82465 2.1961,1.07851 4.6632,1.84221 6.54418,3.28678 12.01901,9.23028 24.01885,18.48914 35.78821,28.0001 4.77527,3.85894 9.05341,8.28762 13.3722,12.622 2.71062,2.72041 4.91983,5.88952 7.65828,8.58104 1.51863,1.49261 3.51575,2.77666 5.55614,3.52297 4.2667,1.56062 5.96308,5.07595 4.27579,8.3671 5.58904,6.45005 10.83552,12.75825 16.40663,18.79929 2.00127,2.17003 4.9272,3.55263 7.18209,5.54595 5.03636,4.45204 9.90715,9.07109 14.87336,13.59466 0.51,0.46459 1.16089,0.9134 1.82807,1.08328 7.21843,1.83767 11.44197,7.06636 15.70728,12.26086 0.26687,0.32498 0.5699,0.63008 0.89248,0.90668 6.26286,5.36959 12.50996,10.75604 18.82111,16.07452 0.95622,0.80581 2.21338,1.29425 3.33564,1.92268 3.8705,2.16741 7.01088,4.52614 8.54698,9.10028 1.12948,3.36321 4.41117,6.22456 7.16656,8.91402 2.35591,2.29964 5.45542,3.90216 7.99225,6.05848 2.87073,2.44018 5.5072,5.12979 8.19885,7.75375 6.36255,6.20261 13.64942,11.08276 22.11492,14.46065 2.00849,0.80147 3.40211,2.98948 5.41333,3.7697 2.03115,0.78779 4.47806,0.61929 6.94201,1.12322 -2.02992,4.4825 -4.25901,8.71146 -7.00302,12.96505 -4.79733,-4.69121 -11.18788,-5.11314 -16.82452,-6.01851 -4.66553,-0.74949 -8.41288,-2.06593 -12.01251,-4.7665 -5.4698,-4.10362 -11.60358,-7.50104 -16.63801,-12.01215 -3.84955,-3.4494 -7.30947,-7.82567 -9.26828,-12.42579 -1.26764,-2.97701 -2.0546,-5.13651 -5.45425,-5.80682 -0.68914,-7.66747 -5.31284,-13.28125 -12.19464,-16.19851 -9.65305,-4.09207 -19.92643,-6.87938 -29.93925,-10.21201 -0.93768,-0.31211 -1.90949,-0.53274 -3.19914,-1.19609 -0.98507,-1.40779 -1.40858,-3.0035 -2.32718,-3.32097 -4.00492,-1.38397 -5.91666,-3.2594 -7.40201,-7.6821 -1.70813,-5.08599 -7.10389,-9.07889 -10.97257,-13.48818 -0.40191,-0.45809 -1.31016,-0.73431 -1.9822,-0.73221 -4.78141,0.0149 -7.01226,-3.48011 -9.73581,-6.25009 -3.60369,-3.66518 -7.05281,-7.46647 -10.67419,-11.11562 -5.21244,-5.25241 -10.59756,-10.35326 -15.75568,-15.65193 -2.73807,-2.8127 -5.21469,-5.86088 -7.69825,-8.88419 -3.22965,-3.93143 -5.91841,-8.35438 -9.62287,-11.81892 -4.78536,-4.47543 -10.40374,-8.14737 -15.54118,-12.30022 -2.03675,-1.64648 -3.67415,-3.72591 -5.62511,-5.47736 -1.77512,-1.59357 -3.63088,-3.14132 -5.63098,-4.46715 -1.99637,-1.32334 -4.0946,-2.94787 -6.36687,-3.35723 -3.27398,-0.58988 -4.84729,-2.14933 -5.47924,-4.96968 -0.3787,-1.6902 -0.69887,-3.39209 -1.0453,-5.08874 2.40118,-5.70836 4.80238,-11.41671 7.462,-17.27804 z"
   id="path3"
   style="stroke-width:0.850718" />
<path
   fill="#6cab48"
   opacity="1"
   stroke="none"
   d="m 206.32383,154.41409 c 0.53885,1.44721 0.85902,3.1491 1.23772,4.8393 0.63195,2.82035 2.20526,4.3798 5.47924,4.96968 2.27227,0.40936 4.3705,2.03389 6.36687,3.35723 2.0001,1.32583 3.85586,2.87358 5.63098,4.46715 1.95096,1.75145 3.58836,3.83088 5.62511,5.47736 5.13744,4.15285 10.75582,7.82479 15.54118,12.30022 3.70446,3.46454 6.39322,7.88749 9.62287,11.81892 2.48356,3.02331 4.96018,6.07149 7.69825,8.88419 5.15812,5.29867 10.54324,10.39952 15.75568,15.65193 3.62138,3.64915 7.0705,7.45044 10.67419,11.11562 2.72355,2.76998 4.9544,6.26495 9.73581,6.25009 0.67204,-0.002 1.58029,0.27412 1.9822,0.73221 3.86868,4.40929 9.26444,8.40219 10.97257,13.48818 1.48535,4.4227 3.39709,6.29813 7.40201,7.6821 0.9186,0.31747 1.34211,1.91318 1.9986,3.22378 -23.46189,-4.83928 -47.24717,-9.12506 -69.2617,-18.74482 -8.63802,-3.77457 -17.00431,-8.58101 -24.49403,-14.1235 -15.61838,-11.55782 -23.48572,-27.42219 -25.11789,-45.95531 -1.04247,-11.83729 -0.71767,-23.65929 3.15034,-35.43433 z"
   id="path4"
   style="stroke-width:0.850718" />
<path
   fill="#8fc23c"
   opacity="1"
   stroke="none"
   d="m 301.90105,92.593223 c 18.03019,-2.011485 36.02207,-1.253823 53.9696,0.85405 5.47157,0.642629 10.8748,1.804107 16.63448,3.163091 1.11773,1.648098 1.6201,3.276081 2.76245,3.988966 2.49697,1.55809 5.24087,2.84443 8.04028,3.85555 1.46591,0.5295 3.27539,0.40591 4.90686,0.29027 3.33794,-0.23665 6.66045,-0.66708 9.98931,-1.01771 1.56559,0.51456 3.13113,1.02909 5.01632,1.9764 1.07199,4.93 5.01792,5.78176 8.0211,6.58572 0.27157,2.98403 -0.33343,6.02745 0.95307,7.92935 1.48609,2.19691 4.63903,3.38786 7.06825,5.01562 -1.35755,3.68696 -2.71516,7.37391 -4.25158,11.54644 6.01138,0 11.70103,0 17.79998,0.39717 0.76468,1.99433 1.12007,3.59146 1.47551,5.18858 -6.91994,0.0655 -13.83988,0.13096 -21.28009,0.29784 -0.6394,0.21914 -0.73925,0.35002 -0.81971,0.49405 -3.68575,9.18294 -7.3715,18.36585 -10.92545,27.22053 -9.45126,-4.2271 -18.32525,-8.19599 -27.42888,-12.64958 -1.59999,-2.08665 -3.03122,-3.64643 -4.32156,-5.30402 -1.02551,-1.31742 -2.9527,-3.0641 -2.62279,-4.08478 1.43465,-4.43867 -0.95023,-6.18422 -4.69919,-7.52165 -0.89515,-0.31931 -1.551,-1.21222 -2.34999,-1.80126 -4.42494,-3.26221 -8.47512,-7.24351 -13.40184,-9.55698 -4.7719,-2.24077 -8.27707,-4.68596 -8.89521,-8.55081 -2.9467,-2.15238 -5.01263,-3.66138 -7.0785,-5.17034 -1.89235,0.0638 -3.4735,-0.48069 -4.92321,-1.24716 -0.99174,-0.52437 -1.7584,-1.41364 -2.69763,-2.04416 -5.03828,-3.38249 -10.53608,-6.2969 -14.99014,-10.26035 -2.71879,-2.419308 -8.44937,-3.998518 -5.95144,-9.594827 z"
   id="path5"
   style="stroke-width:0.850718" />
<path
   fill="#adadae"
   opacity="1"
   stroke="none"
   d="m 303.67169,408.0116 c -95.39137,-5e-5 -190.34508,-5e-5 -285.692541,-5e-5 0,-3.06002 0,-5.83442 0,-8.89055 136.154141,0 272.190731,0 408.619801,0 0,2.75885 0,5.53416 0,8.8907 -40.90167,0 -81.69563,0 -122.92726,-1e-4 z"
   id="path6"
   style="stroke-width:0.850718" />
<path
   fill="#7eb743"
   opacity="1"
   stroke="none"
   d="m 441.58391,296.85419 c -9.37662,2.37195 -11.30631,1.17732 -13.71069,-7.80861 -0.23619,-0.88271 -1.23436,-1.72258 -2.0951,-2.28904 -1.95507,-1.28657 -4.18144,-2.2267 -6.04403,-3.61179 -2.12378,-1.57926 -3.40318,-4.35381 -6.85091,-3.86855 -0.35165,0.0495 -0.85914,-0.26185 -1.14882,-0.54067 -3.98755,-3.83872 -7.93007,-7.71924 -11.92312,-11.55282 -4.43302,-4.25596 -8.91924,-8.46242 -13.35445,-12.71632 -1.29339,-1.2405 -2.50525,-2.55821 -3.72347,-3.86628 -0.28139,-0.30218 -0.33829,-0.85727 -0.66216,-1.04808 -7.6811,-4.52471 -12.58758,-12.20845 -20.65521,-16.24237 -2.1231,-1.06156 -4.75054,-1.22718 -6.86449,-2.29979 -1.97516,-1.00218 -3.48241,-2.79251 -5.36477,-4.00094 -2.55194,-1.63833 -5.35477,-2.9305 -7.88882,-4.59071 -4.21049,-2.75856 -8.3041,-5.67721 -12.42548,-8.55586 -3.35857,-2.34584 -6.78606,-4.61925 -9.97697,-7.15594 -1.25573,-0.9983 -1.95197,-2.62447 -2.93555,-4.25644 12.84221,2.56951 25.93493,4.77221 38.52614,8.49015 11.05426,3.26412 22.13747,2.52384 33.69018,3.23059 0.99522,1.98183 1.57852,3.60616 2.16183,5.23047 -0.95243,0.0356 -1.90485,0.0712 -3.34654,-0.11783 -0.8592,-0.15619 -1.22918,-0.0878 -1.59915,-0.0194 0.3283,0.37646 0.6566,0.75294 0.9849,1.12941 7.25092,3.46772 14.75529,6.54651 21.65221,10.5573 3.79286,2.20566 7.3069,3.5808 11.70658,3.30326 3.04555,-0.19212 6.11855,0.003 9.55021,0.37241 -0.48538,1.94738 -1.34174,3.54786 -2.19816,5.14834 -1.87343,0.13658 -3.74692,0.27317 -6.2761,0.45759 16.12346,15.96632 21.93749,35.03654 20.77194,56.62186 z"
   id="path7"
   style="stroke-width:0.850718" />
<path
   fill="#294d8d"
   opacity="1"
   stroke="none"
   d="m 17.790506,274.06001 c -0.05007,-18.48866 -0.100094,-36.97733 0.272368,-55.83344 2.114729,-0.1 3.957335,-0.13666 5.45492,0.52422 1.37855,0.60834 2.800078,1.77345 3.462476,3.03895 1.063771,2.03222 1.134901,4.56642 2.350052,6.4774 0.968825,1.52363 3.018298,2.43417 4.660689,3.99918 0.07265,6.13097 0.07265,11.87963 0.07265,17.70855 1.842763,0 3.167672,0 4.832962,0 0,-4.32205 0,-8.30346 0.314332,-12.28624 5.695872,0.40944 8.356299,3.95956 10.939225,7.85092 1.010902,1.52296 2.956061,2.49262 4.537705,4.09706 0.0765,22.00609 0.142757,43.62961 0.04499,65.25248 -0.01348,2.97423 0.807186,5.13418 3.131399,7.23206 7.483105,6.75453 14.636245,13.83626 22.159904,20.54855 1.584768,1.41384 4.179266,2.45935 6.351302,2.53182 8.738243,0.29193 17.49451,0.068 26.24069,0.21664 1.33955,0.0227 3.32435,0.6538 3.8752,1.59587 2.31427,3.95807 5.77671,5.64422 10.36198,6.03657 -8.7e-4,1.56826 -0.002,2.82244 -0.41015,4.11825 -15.55135,0.0896 -30.696438,0.21735 -45.838976,0.0848 -1.901375,-0.0167 -4.246508,-0.96477 -5.611087,-2.22813 -11.022251,-10.20453 -21.919486,-20.53229 -32.674367,-30.98804 -1.318318,-1.28167 -2.191268,-3.53322 -2.216862,-5.3486 -0.162996,-11.55141 0.03685,-23.1069 -0.04368,-34.66008 -0.01926,-2.76799 0.303188,-4.64736 3.436889,-6.10652 3.914172,-1.82255 5.341871,-6.50393 4.163186,-10.38469 -1.244151,-4.09635 -5.230984,-7.07093 -9.626684,-7.18235 -4.231305,-0.10735 -8.380608,2.52818 -9.88847,6.28076 -1.534026,3.81769 -0.664008,8.89959 3.071264,10.61471 4.344948,1.99503 4.217658,4.94847 4.041567,8.40105 -0.111788,2.19124 -0.130704,4.38682 -0.502334,6.61828 -2.187478,3.12925 -4.328948,4.70049 -8.34556,2.58243 -2.583783,-1.36242 -5.731962,-1.77001 -8.627197,-2.6056 -0.05751,-5.26433 -0.115106,-10.52871 0.187233,-16.18085 0.819502,-0.73849 1.279147,-1.08921 1.738775,-1.43989 -0.63879,-0.18868 -1.27758,-0.37736 -1.916362,-0.5661 z"
   id="path8"
   style="stroke-width:0.850718" />
<path
   fill="#569f4e"
   opacity="1"
   stroke="none"
   d="m 326.38129,380.0514 c -12.47623,-0.41285 -25.00002,-0.31864 -37.41738,-1.35869 -18.04409,-1.51135 -35.44325,-6.0005 -52.43719,-11.92934 -2.86989,-1.00119 -3.98232,-2.18987 -3.93551,-5.2392 0.2278,-14.84482 0.13965,-29.69389 0.54606,-44.96079 3.356,-1.48959 6.2737,-2.74054 9.31925,-3.57531 2.60424,-0.71376 4.58752,0.25318 4.99441,3.02333 0.67974,4.62723 4.23059,6.22163 8.29684,7.73863 2.72863,1.01795 5.29248,2.72802 7.51206,4.5762 1.9775,1.64669 2.99228,4.45297 5.10805,5.80005 7.15972,4.55825 14.64379,8.65989 21.93953,13.03182 1.12039,0.67132 2.07998,1.73878 2.80822,2.80866 2.44232,3.58838 6.83751,5.84295 7.92718,10.35541 0.046,0.19076 0.45739,0.31223 0.7095,0.44782 3.37374,1.81347 7.17046,3.16913 10.03259,5.53416 5.1603,4.26404 9.76161,9.13168 14.59639,13.74725 z"
   id="path9"
   style="stroke-width:0.850718" />
<path
   fill="#5da44c"
   opacity="1"
   stroke="none"
   d="m 326.72568,380.16438 c -5.17917,-4.72855 -9.78048,-9.59619 -14.94078,-13.86023 -2.86213,-2.36503 -6.65885,-3.72069 -10.03259,-5.53416 -0.25211,-0.13559 -0.66344,-0.25706 -0.7095,-0.44782 -1.08967,-4.51246 -5.48486,-6.76703 -7.92718,-10.35541 -0.72824,-1.06988 -1.68783,-2.13734 -2.80822,-2.80866 -7.29574,-4.37193 -14.77981,-8.47357 -21.93953,-13.03182 -2.11577,-1.34708 -3.13055,-4.15336 -5.10805,-5.80005 -2.21958,-1.84818 -4.78343,-3.55825 -7.51206,-4.5762 -4.06625,-1.517 -7.6171,-3.1114 -8.29684,-7.73863 -0.40689,-2.77015 -2.39017,-3.73709 -4.99441,-3.02333 -3.04555,0.83477 -5.96325,2.08572 -9.24686,3.19315 -0.36271,-2.19922 -0.41496,-4.43552 -0.0837,-7.04667 0.9606,-0.81524 1.53765,-1.25564 2.11476,-1.69603 -0.79044,-0.38005 -1.58093,-0.76009 -2.37136,-1.14013 -0.42778,-0.64922 -0.85557,-1.29838 -1.7161,-2.3447 -2.22973,-0.72491 -4.02671,-1.05277 -6.02505,-1.41733 0.0788,-1.10798 0.15236,-2.14198 0.24586,-3.45631 -2.22802,-0.63332 -4.41833,-1.25594 -6.60869,-1.87851 0.69342,-1.57352 1.38683,-3.14702 2.50654,-4.63399 0.92795,0.21225 1.42957,0.33796 1.93124,0.46361 0,0 -0.0536,0.0352 -0.0187,0.30253 1.74932,3.20056 4.40967,4.61895 7.92749,4.66386 12.60703,5.82696 24.93709,12.29071 37.89192,17.31811 15.82755,6.1422 32.69267,8.44663 49.90742,9.21241 -2.95082,0.95493 -6.00374,1.53875 -9.05666,2.12256 -0.18886,0.64851 -0.37777,1.29707 -0.56668,1.94558 5.96863,4.81202 11.88866,9.67931 17.92605,14.41301 3.09577,2.42731 6.59618,4.41387 9.56025,6.96587 3.35189,2.88587 5.83892,6.85187 9.53418,9.15907 7.33902,4.58221 12.43147,11.19655 18.69262,16.72819 -12.64363,1.47172 -25.2873,2.9434 -38.27531,4.30203 z"
   id="path10"
   style="stroke-width:0.850718" />
<path
   fill="#86bc40"
   opacity="1"
   stroke="none"
   d="m 301.49853,92.561201 c -2.09541,5.628331 3.63517,7.207541 6.35396,9.626849 4.45406,3.96345 9.95186,6.87786 14.99014,10.26035 0.93923,0.63052 1.70589,1.51979 2.69763,2.04416 1.44971,0.76647 3.03086,1.311 4.92321,1.24716 2.06587,1.50896 4.1318,3.01796 7.0785,5.17034 0.61814,3.86485 4.12331,6.31004 8.89521,8.55081 4.92672,2.31347 8.9769,6.29477 13.40184,9.55698 0.79899,0.58904 1.45484,1.48195 2.34999,1.80126 3.74896,1.33743 6.13384,3.08298 4.69919,7.52165 -0.32991,1.02068 1.59728,2.76736 2.62279,4.08478 1.29034,1.65759 2.72157,3.21737 4.07549,5.15031 -16.79616,-4.99909 -33.96191,-8.45301 -51.73057,-8.21295 -6.95388,0.0939 -13.89288,1.16581 -21.23997,1.43703 0.32093,-3.64088 1.0432,-6.92653 1.76541,-10.21218 0.46758,-0.66079 -0.13816,-1.43536 -0.87907,-2.06883 -5.65733,-4.83695 -11.36477,-9.62165 -17.00751,-14.47367 -3.40772,-2.93021 -6.69785,-5.98218 -10.09355,-8.9251 -5.14208,-4.45635 -12.26039,-6.82329 -15.60945,-13.17723 13.47028,-5.668468 27.69927,-8.295008 42.70676,-9.381719 z"
   id="path11"
   style="stroke-width:0.850718" />
<path
   fill="#254185"
   opacity="1"
   stroke="none"
   d="m 17.702247,292.6275 c 2.973848,0.45494 6.122027,0.86253 8.70581,2.22495 4.016612,2.11806 6.158082,0.54682 8.4296,-2.20098 0.381749,9.43572 0.222947,18.53136 0.471558,27.61711 0.05287,1.93261 1.095345,4.28256 2.521836,5.6694 10.36493,10.07656 21.108431,19.80829 31.374116,29.97174 3.950936,3.91165 7.94738,6.65219 13.839248,6.19605 -0.693656,1.32265 -1.136801,2.58062 -2.041779,3.36023 -5.777803,4.97764 -5.81125,4.94302 -3.16397,11.14492 -19.606591,0.0577 -39.213165,0.11546 -59.257456,0.0282 -0.437665,-0.14514 -0.550504,-0.0989 -0.550504,-0.0989 -0.148045,-0.92576 -0.424973,-1.85142 -0.42535,-2.77723 -0.01085,-26.91823 0.0061,-53.83652 0.09689,-81.13545 z"
   id="path12"
   style="stroke-width:0.850718" />
<path
   fill="#2267a4"
   opacity="1"
   stroke="none"
   d="m 162.73976,313.0726 c 9.9386,-0.0475 19.8772,-0.095 30.26614,0.19479 2.30767,3.08334 3.71863,2.70466 4.7669,-0.21281 6.42746,-0.0283 12.85494,-0.0566 19.6925,0.30879 0.005,2.26001 -0.22379,4.17966 -0.8366,5.98293 -2.16324,6.3656 -0.7803,8.31936 6.19624,8.48049 -0.0161,16.0008 -0.0321,32.00165 -0.19954,48.35731 -0.15131,0.35492 -0.11476,0.31434 -0.11476,0.31439 -10.3173,0.11581 -20.6346,0.23163 -31.38397,-0.0538 -1.95919,-1.3882 -3.37097,-2.63678 -5.04323,-3.29443 -1.9922,-0.7834 -3.75758,-1.39905 -2.85016,-3.95645 7.94211,-0.39595 12.4577,-4.5479 11.78988,-10.56223 -0.64884,-5.84279 -6.18646,-9.75954 -12.36574,-8.69828 -1.40111,0.24065 -2.7681,0.6586 -4.15811,0.6867 -2.11361,-3.35366 -4.24501,-6.38401 -6.31182,-9.45322 -0.66766,-0.99151 -1.16554,-2.08496 -1.49927,-3.27162 5.69823,-3.22993 7.68893,-7.60544 5.84208,-12.4489 -1.74773,-4.58343 -6.65503,-6.97849 -12.76474,-6.55707 -0.37644,-2.17378 -0.70114,-3.99511 -1.0258,-5.81655 z"
   id="path13"
   style="stroke-width:0.850718" />
<path
   fill="#66a84a"
   opacity="1"
   stroke="none"
   d="m 365.35942,375.87531 c -6.61959,-5.5446 -11.71203,-12.15894 -19.05105,-16.74115 -3.69526,-2.3072 -6.18229,-6.2732 -9.53418,-9.15907 -2.96407,-2.552 -6.46448,-4.53856 -9.56025,-6.96587 -6.0374,-4.7337 -11.95742,-9.60099 -17.92606,-14.41301 0.18892,-0.64851 0.37783,-1.29707 0.56669,-1.94558 3.05292,-0.58381 6.10584,-1.16763 9.39025,-2.00276 8.40433,-1.08259 16.6425,-1.55963 24.7237,-2.88809 4.31805,-0.70992 8.36544,-2.8887 12.82517,-4.19339 0.47485,0.86768 0.46545,1.66895 0.87453,2.15794 3.57991,4.27933 7.23099,8.50561 10.86817,12.7421 3.43593,4.00208 5.48225,9.15539 10.78921,11.61227 0.51669,0.23919 1.01862,0.54142 1.45602,0.89361 5.56698,4.48254 11.01253,9.10856 16.7376,13.40222 1.97141,1.47854 2.42938,2.808 1.56084,4.81984 -10.04103,6.76306 -21.532,10.12612 -33.72064,12.68094 z"
   id="path14"
   style="stroke-width:0.850718" />
<path
   fill="#7eb743"
   opacity="1"
   stroke="none"
   d="m 258.47907,101.96679 c 3.66176,6.33007 10.78007,8.69701 15.92215,13.15336 3.3957,2.94292 6.68583,5.99489 10.09355,8.9251 5.64274,4.85202 11.35018,9.63672 17.00751,14.47367 0.74091,0.63347 1.34665,1.40804 0.87907,2.06883 -0.72221,3.28565 -1.44448,6.5713 -2.14116,10.24647 -6.89835,2.69418 -13.82235,4.99861 -19.07706,10.63655 -2.43526,-1.07495 -5.92013,-1.85469 -6.55093,-3.57056 -1.94374,-5.28714 -7.15817,-6.06984 -11.06409,-8.68558 -2.81287,-1.88373 -5.466,-4.02842 -7.94881,-6.29303 -4.19084,-3.82248 -8.16268,-7.85827 -12.29214,-11.74224 -0.87003,-0.81835 -2.00304,-1.39736 -3.0487,-2.03732 -4.17812,-2.55705 -8.36954,-5.09462 -12.67727,-7.91191 8.55616,-8.84534 19.1323,-14.67557 30.89788,-19.26334 z"
   id="path15"
   style="stroke-width:0.850718" />
<path
   fill="#6fad48"
   opacity="1"
   stroke="none"
   d="m 399.38191,363.20911 c 0.56669,-2.02658 0.10872,-3.35604 -1.86269,-4.83458 -5.72507,-4.29366 -11.17062,-8.91968 -16.7376,-13.40222 -0.4374,-0.35219 -0.93933,-0.65442 -1.45602,-0.89361 -5.30696,-2.45688 -7.35328,-7.61019 -10.78921,-11.61227 -3.63718,-4.23649 -7.28826,-8.46277 -10.86817,-12.7421 -0.40908,-0.48899 -0.39968,-1.29026 -0.57726,-2.24776 4.27701,-4.06118 8.85742,-7.63966 9.81044,-13.5583 0.36244,-2.25054 0.46192,-4.53887 0.74433,-7.17615 3.46264,0.30404 4.2496,2.46354 5.51724,5.44055 1.95881,4.60012 5.41873,8.97639 9.26828,12.42579 5.03443,4.51111 11.16821,7.90853 16.63801,12.01215 3.59963,2.70057 7.34698,4.01701 12.01251,4.7665 5.63664,0.90537 12.02719,1.3273 16.58196,6.17863 -6.64265,11.11444 -16.58752,19.10109 -28.28182,25.64337 z"
   id="path16"
   style="stroke-width:0.850718" />
<path
   fill="#327bb3"
   opacity="1"
   stroke="none"
   d="m 29.671605,94.055838 c 21.923197,0 43.846403,0 66.265634,0 0,15.920082 0,31.796312 -0.490474,48.070582 -4.684463,0.83664 -7.796903,-0.76864 -10.982748,-3.38433 -3.034272,-2.49124 -6.828498,-4.77504 -10.663925,-5.60766 -4.027693,-0.87436 -6.825749,-2.57116 -9.072819,-5.7073 5.890292,-2.89758 7.909584,-5.98662 7.195384,-11.0884 -0.604302,-4.3165 -3.738161,-7.4663 -8.452061,-8.11168 -5.515511,-0.75514 -8.986004,2.03649 -11.769179,6.3139 -1.873277,-1.19337 -3.487378,-2.26787 -4.921275,-3.52562 -2.266169,-1.98783 -4.134825,-4.49577 -6.668574,-6.07017 -4.540139,-2.82113 -8.700891,-5.761221 -10.439963,-10.889322 z"
   id="path17"
   style="stroke-width:0.850718" />
<path
   fill="#226ba7"
   opacity="1"
   stroke="none"
   d="m 29.270353,93.993894 c 2.140324,5.190045 6.301076,8.130136 10.841215,10.951266 2.533749,1.5744 4.402405,4.08234 6.668574,6.07017 1.433897,1.25775 3.047998,2.33225 4.835983,3.87233 -0.56907,4.02234 -0.119194,7.97477 3.258182,9.64462 5.162682,2.55263 4.832831,6.3651 4.634727,10.58371 -0.12245,2.6084 0.121671,5.23746 -0.10146,7.83402 -0.107919,1.25612 -0.573175,2.76989 -1.459351,3.63362 -4.650868,4.53296 -9.488102,8.89532 -14.388308,13.05185 0.06871,-2.18155 0.265103,-4.09796 0.3637,-5.0599 -3.321031,-2.94923 -6.749701,-5.1656 -8.970055,-8.17685 -2.733702,-3.70742 -4.286468,-8.17071 -6.672365,-12.13399 -2.267107,-3.76593 -5.151251,-7.01862 -10.498435,-6.55491 0,-11.06206 0,-22.12413 0,-33.77788 3.690525,0 7.388403,0 11.487593,0.06193 z"
   id="path18"
   style="stroke-width:0.850718" />
<path
   fill="#226ba7"
   opacity="1"
   stroke="none"
   d="m 64.605786,127.69416 c 2.368557,2.86911 5.166613,4.56591 9.194306,5.44027 3.835427,0.83262 7.629653,3.11642 10.663925,5.60766 3.185845,2.61569 6.298285,4.22097 10.893849,3.75203 0.477869,12.71124 0.554154,25.4528 0.178331,38.57443 -5.347377,1.20748 -10.242655,2.03483 -15.214848,2.57679 -0.295958,-1.21608 -0.515027,-2.14681 -0.733755,-3.39622 1.056017,-6.82666 1.052997,-6.82186 -5.516605,-10.51213 -0.870437,-0.48892 -1.623825,-1.34817 -2.54673,-1.5394 -5.956248,-1.23399 -10.852734,-3.63003 -12.240474,-10.51728 -1.831603,1.48624 -2.806406,2.48433 -3.980741,3.18346 -1.945344,1.15814 -3.657026,1.3896 -3.54796,-1.8469 3.191937,-3.15908 6.512993,-5.87133 9.197974,-9.06125 1.552819,-1.8449 2.678398,-4.39842 2.947106,-6.74044 0.589369,-5.13742 0.511202,-10.34316 0.705622,-15.52102 z"
   id="path19"
   style="stroke-width:0.850718" />
<path
   fill="#24619d"
   opacity="1"
   stroke="none"
   d="m 95.87783,207.91745 c 0.03212,15.18125 0.06425,30.36251 -0.364549,45.91997 -5.319086,0.80999 -9.340916,0.11757 -12.293284,-4.42225 -1.123924,-1.72823 -4.647042,-2.06447 -7.076715,-3.03511 -0.610342,1.65165 -1.220657,3.30333 -2.079103,5.07763 -2.380715,1.62241 -4.513292,3.12215 -6.831062,4.36739 -2.658239,-0.98263 -5.131328,-1.71072 -7.675065,-2.79155 -0.799282,-4.09474 0.507998,-6.99784 3.76618,-9.26387 1.393001,-0.9688 2.341982,-2.53312 3.774811,-3.42045 6.330732,-3.92051 6.017118,-9.65378 5.125892,-16.53961 -1.740639,0.92609 -3.018298,1.60586 -4.587389,2.32885 -4.158057,0.6176 -8.746942,-1.24774 -9.85294,-4.34931 -0.403956,-1.13282 0.709464,-2.74836 1.130647,-4.14368 1.993058,2.42356 1.798402,-0.22064 2.202271,-0.93324 0.578628,-1.0209 0.88797,-2.17796 1.141256,-2.83391 -1.298597,-1.00857 -2.459644,-1.91028 -3.214424,-2.81288 6.662062,-0.0118 12.920317,0.0623 19.171691,-0.10014 1.369088,-0.0356 2.713604,-0.91371 4.394659,-1.40484 0.975556,-0.007 1.625909,-0.0123 2.64728,0.0102 2.402721,-0.57708 5.276266,1.54197 6.848053,-1.66316 1.48618,0.003 2.628986,0.007 3.771791,0.01 m -30.34892,6.69142 c 0,1.46686 0,2.93371 0,4.43119 4.212125,1.00706 3.278402,-1.66466 3.355168,-3.45757 0.109075,-2.54917 -1.232002,-2.70324 -3.355168,-0.97362 m 11.668515,4.11865 c 1.568453,1.07856 3.156968,1.47208 3.127338,-1.00345 -0.01751,-1.46256 -1.007103,-2.91478 -1.559524,-4.37165 -0.563459,1.15476 -1.165039,2.29504 -1.667164,3.4731 -0.150548,0.35324 -0.0239,0.81186 0.09935,1.902 z"
   id="path20"
   style="stroke-width:0.850718" />
<path
   fill="#225594"
   opacity="1"
   stroke="none"
   d="m 95.823017,283.99865 c 0,9.43652 0,18.87305 0,28.92447 10.349213,0 20.280833,0 30.620383,0.38847 0.59412,3.95586 1.90728,6.94417 4.90835,9.32101 1.12598,0.89175 1.69568,2.41025 2.11414,3.71903 -7.9813,0.0546 -15.66488,-0.73773 -23.11019,0.18525 -12.451532,1.54349 -22.035204,-2.02556 -29.271676,-11.58022 -0.166794,-0.22022 -0.493494,-0.35148 -0.608223,-0.58452 -0.579775,-1.17787 -1.584025,-2.37346 -1.590703,-3.56698 -0.05917,-10.59316 0.06118,-21.18717 0.438251,-31.77452 5.474344,2.33582 10.45263,5.20762 16.499668,4.96801 z"
   id="path21"
   style="stroke-width:0.850718" />
<path
   fill="#a1ca3e"
   opacity="1"
   stroke="none"
   d="m 398.42991,103.44992 c -3.55474,0.62815 -6.87725,1.05858 -10.21519,1.29523 -1.63147,0.11564 -3.44095,0.23923 -4.90686,-0.29027 -2.79941,-1.01112 -5.54331,-2.29746 -8.04028,-3.85555 -1.14235,-0.712885 -1.64472,-2.340868 -2.44744,-3.85443 3.89908,-0.08227 7.80772,0.313357 11.71764,0.325337 24.17401,0.07408 48.3486,0.0083 72.52208,0.142639 3.22292,0.01794 5.09454,-0.667457 6.76789,-3.563071 3.93722,-6.81291 12.97673,-8.628625 19.62287,-4.42171 6.33615,4.010634 7.86366,12.564035 3.32795,18.635265 -4.56615,6.11212 -13.43368,7.53916 -19.62159,2.86152 -1.83837,-1.38967 -2.84455,-3.72751 -4.39999,-5.49937 -0.79882,-0.91 -1.96565,-2.18273 -2.96936,-2.1853 -20.37698,-0.0523 -40.75448,0.0561 -61.35772,0.40971 m 83.72508,0.40435 c 1.87605,-4.750191 0.50194,-8.717947 -3.61704,-10.444137 -3.75259,-1.572629 -8.16157,0.07226 -9.88904,3.689431 -1.42829,2.990676 -0.29305,6.856866 2.59869,8.850306 3.18498,2.19561 6.82724,1.66352 10.90739,-2.0956 z"
   id="path22"
   style="stroke-width:0.850718" />
<path
   fill="#24619d"
   opacity="1"
   stroke="none"
   d="m 17.703043,128.09048 c 5.426901,-0.84436 8.311045,2.40833 10.578152,6.17426 2.385897,3.96328 3.938663,8.42657 6.672365,12.13399 2.220354,3.01125 5.649024,5.22762 8.970055,8.17685 -0.0986,0.96194 -0.294987,2.87835 -0.489783,5.31116 -1.958377,2.35017 -3.760253,4.3748 -5.917908,5.97017 -2.791508,2.06402 -3.738108,4.50517 -3.521893,7.81239 0.258581,3.95513 -0.04429,7.94302 -0.427914,11.91687 -1.898356,-0.78519 -3.847174,-1.25231 -4.965007,-2.42572 -1.993775,-2.09288 -3.230827,-4.84063 -5.274453,-6.87528 -1.419392,-1.41316 -3.659354,-2.09097 -5.532676,-3.09729 -0.0569,-14.90558 -0.113749,-29.81117 -0.09094,-45.0974 z"
   id="path23"
   style="stroke-width:0.850718" />
<path
   fill="#225594"
   opacity="1"
   stroke="none"
   d="m 182.87396,369.24604 c -0.5481,2.50513 1.21728,3.12078 3.20948,3.90418 1.67226,0.65764 3.08404,1.90622 4.64333,3.19971 -21.00139,0.34991 -42.03499,0.39331 -63.50087,0.055 -3.38534,-3.787 -4.41555,-7.3504 -1.76116,-11.41279 0.56915,-0.87101 0.5247,-2.09964 1.10889,-3.21595 14.89271,-0.0805 29.43985,-0.065 43.98587,-0.1796 2.41704,-0.019 3.68622,0.75448 5.21568,2.62002 1.74622,2.12998 4.68067,3.39087 7.09878,5.02943 z"
   id="path24"
   style="stroke-width:0.850718" />
<path
   fill="#225594"
   opacity="1"
   stroke="none"
   d="m 17.714108,173.56823 c 1.953195,0.62597 4.193157,1.30378 5.612549,2.71694 2.043626,2.03465 3.280678,4.7824 5.274453,6.87528 1.117833,1.17341 3.066651,1.64053 5.033396,2.80859 0.35619,15.56013 0.320013,30.73756 0.283844,45.91497 -1.56973,-1.1827 -3.619203,-2.09324 -4.588028,-3.61687 -1.215151,-1.91098 -1.286281,-4.44518 -2.350052,-6.4774 -0.662398,-1.2655 -2.083926,-2.43061 -3.462476,-3.03895 -1.497585,-0.66088 -3.340191,-0.62419 -5.36912,-0.90303 -0.395964,-14.64064 -0.455189,-29.26992 -0.434566,-44.27953 z"
   id="path25"
   style="stroke-width:0.850718" />
<path
   fill="#294d8d"
   opacity="1"
   stroke="none"
   d="m 126.22764,361.82857 c -0.2382,1.06393 -0.19375,2.29257 -0.7629,3.16358 -2.65439,4.06238 -1.62418,7.62578 1.35934,11.32669 -16.04105,0.35481 -32.112567,0.41406 -48.58474,0.38272 -3.047954,-6.29254 -3.014507,-6.25792 2.763296,-11.23556 0.904978,-0.77961 1.348123,-2.03758 2.446768,-3.42947 14.554061,-0.30606 28.666146,-0.25696 42.778236,-0.20796 z"
   id="path26"
   style="stroke-width:0.850718" />
<path
   fill="#a1ca3e"
   opacity="1"
   stroke="none"
   d="m 434.61247,142.44492 c -0.68123,-1.67532 -1.03662,-3.27245 -1.39581,-5.20811 14.11481,-0.36781 28.23364,-0.44451 42.35181,-0.3857 2.7727,0.0116 4.61146,-0.21798 6.11914,-3.0912 2.98791,-5.69416 9.94776,-8.09654 15.9367,-6.2802 6.38765,1.93726 10.31361,7.2378 9.96228,13.45052 -0.33541,5.93153 -4.83627,10.65143 -11.36937,11.92256 -6.38429,1.24218 -12.55375,-1.67951 -15.1806,-7.71214 -1.01637,-2.33418 -2.41405,-2.573 -4.60686,-2.56791 -13.83038,0.0323 -27.66097,-0.0232 -41.81729,-0.12782 m 58.69229,-9.61683 c -5.47178,1.52012 -7.98696,4.67776 -6.9537,8.7298 0.95034,3.72665 4.38932,5.91267 8.55649,5.34672 3.83336,-0.52056 5.95031,-2.79219 6.39374,-6.29892 0.47287,-3.73992 -2.15862,-6.39507 -7.99653,-7.7776 z"
   id="path27"
   style="stroke-width:0.850718" />
<path
   fill="#8fc23c"
   opacity="1"
   stroke="none"
   d="m 427.48866,239.86233 c 0.45583,-1.68807 1.31219,-3.28855 2.20285,-5.1691 5.9843,-0.37354 11.94824,-0.28253 17.87478,-0.68409 1.57296,-0.1066 3.63723,-1.39631 4.43873,-2.70817 3.84234,-6.28886 10.95707,-8.93812 17.85094,-6.26813 6.57166,2.54519 9.9438,9.44612 7.81659,15.99616 -2.0429,6.29047 -9.10127,10.22018 -16.22161,8.90418 -4.43553,-0.81983 -7.79479,-3.22138 -9.4074,-7.20524 -0.98384,-2.43033 -2.52534,-2.89551 -4.96189,-2.84749 -6.39519,0.12603 -12.7947,0.0594 -19.59299,-0.0181 m 44.35148,-4.69126 c -2.65478,-5.71185 -8.62273,-7.33265 -12.73022,-3.38693 -2.63914,2.53525 -3.19418,5.50895 -1.23489,8.6298 1.78176,2.83806 4.43024,4.35254 8.02378,3.66461 4.11251,-0.78728 5.943,-3.36807 5.94133,-8.90748 z"
   id="path28"
   style="stroke-width:0.850718" />
<path
   fill="#8fc23c"
   opacity="1"
   stroke="none"
   d="m 390.74144,219.47227 c -0.98673,-1.69539 -1.57003,-3.31972 -2.16129,-5.23491 10.62391,-0.31261 21.25663,-0.40879 31.88706,-0.30276 2.60675,0.026 4.08895,-0.54864 5.40991,-2.9168 2.75271,-4.93496 8.49707,-7.00226 13.73239,-5.53712 5.41199,1.51452 8.93148,6.03403 8.90877,11.44024 -0.0214,5.12048 -3.67004,9.54848 -8.97551,10.89271 -5.51189,1.39658 -10.94088,-0.58248 -13.65374,-5.55132 -1.31065,-2.40061 -2.88233,-2.90535 -5.45778,-2.86571 -9.76033,0.15035 -19.52398,0.11352 -29.68981,0.0756 m 45.54866,-9.11983 c -5.01573,1.16947 -7.53343,4.35562 -6.16359,8.02537 1.12274,3.00797 3.40676,4.79 6.91764,4.48275 3.26252,-0.28555 5.26348,-2.14716 5.80922,-5.1903 0.62444,-3.48162 -1.35504,-5.84916 -6.56327,-7.31782 z"
   id="path29"
   style="stroke-width:0.850718" />
<path
   fill="#a1ca3e"
   opacity="1"
   stroke="none"
   d="m 419.49956,125.00162 c -2.66601,-1.39485 -5.81895,-2.5858 -7.30504,-4.78271 -1.2865,-1.9019 -0.6815,-4.94532 -0.95307,-7.92935 -3.00318,-0.80396 -6.94911,-1.65572 -7.74788,-6.44281 7.33282,2.27867 14.53928,5.11678 20.38552,10.07837 -0.20532,0.39125 -0.41063,0.78249 -0.61594,1.17374 2.59147,0 5.18531,-0.0664 7.7739,0.0152 4.08393,0.12871 7.42963,0.0773 10.21557,-4.09377 3.21903,-4.81962 10.78483,-4.40793 14.85145,-0.17716 4.30437,4.47808 3.84453,12.15961 -0.92582,15.46603 -4.95579,3.43501 -12.28332,2.35831 -15.17494,-2.76461 -1.47519,-2.61368 -3.22298,-3.01938 -5.82925,-2.95698 -3.63355,0.087 -7.2873,-0.1873 -10.89959,0.0834 -1.2304,0.0922 -2.36159,1.36456 -3.77491,2.33062 m 29.71326,0.2782 c 3.52403,-0.76725 5.70995,-3.01471 4.51289,-6.1742 -0.69337,-1.82988 -3.49614,-3.89385 -5.48417,-4.02445 -1.4612,-0.096 -4.01849,2.55339 -4.52967,4.37034 -0.90295,3.20922 0.94548,5.53542 5.50095,5.82831 z"
   id="path30"
   style="stroke-width:0.850718" />
<path
   fill="#2b609b"
   opacity="1"
   stroke="none"
   d="m 133.87072,326.27563 c -0.82329,-1.23278 -1.39299,-2.75128 -2.51897,-3.64303 -3.00107,-2.37684 -4.31423,-5.36515 -4.50367,-9.25752 11.69256,-0.36486 23.3884,-0.40467 35.48796,-0.37343 0.72838,1.89238 1.05308,3.71372 1.18392,6.01805 -2.11804,2.08128 -3.99089,3.74002 -5.98662,5.25424 -1.11115,0.84315 -2.41173,2.03021 -3.65305,2.05907 -6.66534,0.15472 -13.33886,-0.006 -20.00957,-0.0574 z"
   id="path31"
   style="stroke-width:0.850718" />
<path
   fill="#2267a4"
   opacity="1"
   stroke="none"
   d="m 84.886968,209.54248 c -0.650353,0.006 -1.300706,0.0113 -2.348074,-0.36439 -0.39698,-6.9141 -0.39698,-13.44678 -0.39698,-20.49574 -2.925416,0 -5.352025,0 -7.786617,-0.26324 0.04193,-0.78573 0.09187,-1.30817 0.441858,-1.89312 0.917031,-0.0784 1.534052,-0.0943 2.48762,-0.0413 1.262217,-0.80545 2.187845,-1.67969 3.11348,-2.5539 4.895287,-0.82735 9.790565,-1.65471 15.047494,-2.48441 0.433044,3.05818 0.504392,6.11871 0.151467,9.55295 -1.794637,0.37283 -3.164985,0.37197 -4.754699,0.11753 -1.652091,-0.31909 -3.116598,-0.57602 -4.504207,-0.37036 -0.706532,0.10476 -1.274875,1.04107 -1.905673,1.60147 0.703083,0.45924 1.361498,1.21121 2.118974,1.31441 1.405238,0.1914 2.868335,0.004 4.335758,0.27646 0.04876,0.90903 0.06915,1.51571 -0.243867,2.1265 -1.75707,-0.0253 -3.189443,-0.15092 -4.600266,-0.0374 -0.575766,0.0464 -1.389981,0.50683 -1.578737,0.96776 -0.208443,0.50916 0.08342,1.74643 0.31679,1.78403 1.642129,0.2646 3.389718,0.59309 4.966933,0.28224 0.73372,-0.14458 1.162124,-1.67131 2.018513,-2.48269 1.571761,0.80331 2.853954,1.51774 4.136182,2.23221 0.04692,2.78676 0.09384,5.57355 0.05786,8.73319 -1.225751,0.36939 -2.368557,0.36596 -4.007351,0.0872 -5.195613,-2.15547 -6.948331,-1.57232 -7.066457,1.91065 m 4.436753,-8.19683 c -0.579188,-0.002 -1.211221,-0.14667 -1.726511,0.0237 -1.066651,0.35269 -2.071216,0.87298 -3.101296,1.32434 0.295529,0.55607 0.599864,1.59501 0.885134,1.59035 1.9552,-0.0319 3.906452,-0.28252 5.858957,-0.46267 -0.405235,-0.81535 -0.810495,-1.63069 -1.916284,-2.47576 z"
   id="path32"
   style="stroke-width:0.850718" />
<path
   fill="#2b609b"
   opacity="1"
   stroke="none"
   d="m 95.91659,283.62658 c -6.140611,0.61168 -11.118897,-2.26012 -16.668143,-4.96301 -0.381591,-1.85661 -0.604783,-3.38112 -0.31118,-4.81101 0.288045,-1.40289 0.820807,-2.92186 1.745051,-4.01273 1.73276,-2.04525 3.825614,-3.81839 6.117755,-5.70013 3.244204,0.54662 6.139333,1.08865 9.034481,1.63068 0.06276,1.15784 0.125478,2.31568 -0.181456,3.90322 -0.185334,2.01941 -8.76e-4,3.60912 0.183408,5.19883 0.05786,2.79403 0.115745,5.588 0.08009,8.75415 z"
   id="path33"
   style="stroke-width:0.850718" />
<path
   fill="#225594"
   opacity="1"
   stroke="none"
   d="m 95.914883,265.39392 c -2.975477,-0.16557 -5.870606,-0.7076 -9.096192,-1.61515 -0.03011,-7.31265 -1.63524,-9.75141 -8.151734,-12.42392 -0.64848,-0.18783 -1.246638,-0.12389 -2.157795,-0.0884 -0.940937,0.004 -1.568899,0.0363 -2.196844,0.0686 0.610307,-1.65173 1.220622,-3.30341 1.830964,-4.95506 2.429673,0.97064 5.952791,1.30688 7.076715,3.03511 2.952368,4.53983 6.974198,5.23224 12.196639,4.79956 0.435766,3.60165 0.507166,7.20214 0.498247,11.17919 z"
   id="path34"
   style="stroke-width:0.850718" />
<path
   fill="#327bb3"
   opacity="1"
   stroke="none"
   d="m 222.91592,327.44609 c -7.06752,0.21957 -8.45046,-1.73419 -6.28722,-8.09979 0.61281,-1.80327 0.84173,-3.72292 1.24032,-5.92096 1.54895,-0.33175 3.10428,-0.33175 5.13795,-0.33175 0,4.75773 0,9.36476 -0.091,14.3525 z"
   id="path35"
   style="stroke-width:0.850718" />
<path
   fill="#569f4e"
   opacity="1"
   stroke="none"
   d="m 218.54312,297.39684 c 2.41261,0.42727 4.60291,1.04989 6.83093,1.68321 -0.0935,1.31433 -0.16706,2.34833 -0.24586,3.45631 1.99835,0.36456 3.79532,0.69242 5.73095,1.27432 -4.89981,0.25403 -9.93824,0.25403 -15.56883,0.25403 1.09184,-2.33188 2.0612,-4.40221 3.25281,-6.66787 z"
   id="path36"
   style="stroke-width:0.850718" />
<path
   fill="#24619d"
   opacity="1"
   stroke="none"
   d="m 90.976828,196.06119 c -0.02031,-0.6067 -0.0407,-1.21338 -0.06749,-2.40616 0.04648,-1.15227 0.09956,-1.71848 0.152587,-2.28465 1.370348,8.3e-4 2.740695,0.002 4.452011,0.002 0.409033,2.23524 0.477063,4.47081 0.467076,7.07255 -1.360281,-0.34828 -2.642474,-1.06272 -4.377082,-1.93408 -0.45238,-0.15689 -0.62706,-0.44999 -0.62706,-0.44999 z"
   id="path37"
   style="stroke-width:0.850718" />
<path
   fill="#569f4e"
   opacity="1"
   stroke="none"
   d="m 230.93848,297.77238 c -3.34441,0.18026 -6.00476,-1.23813 -7.7411,-4.467 2.50792,1.21683 5.0378,2.72934 7.7411,4.467 z"
   id="path38"
   style="stroke-width:0.850718" />
<path
   fill="#327bb3"
   opacity="1"
   stroke="none"
   d="m 197.4114,312.97913 c -0.68687,2.99292 -2.09783,3.3716 -4.00013,0.34548 1.18289,-0.32705 2.41082,-0.37403 4.00013,-0.34548 z"
   id="path39"
   style="stroke-width:0.850718" />
<path
   fill="#24619d"
   opacity="1"
   stroke="none"
   d="m 95.92087,274.52554 c -0.268735,-1.24282 -0.453106,-2.83253 -0.354378,-4.51186 0.334981,1.32855 0.386861,2.74674 0.354378,4.51186 z"
   id="path40"
   style="stroke-width:0.850718" />
<path
   fill="#569f4e"
   opacity="1"
   stroke="none"
   d="m 232.80314,306.60496 c 0.85664,0.0735 1.64713,0.45351 2.43756,0.83356 -0.5771,0.44039 -1.15416,0.88079 -2.04455,1.32856 -0.36191,-0.61359 -0.41053,-1.23455 -0.39301,-2.16212 z"
   id="path41"
   style="stroke-width:0.850718" />
<path
   fill="#254185"
   opacity="1"
   stroke="none"
   d="m 17.714291,274.32939 c 0.714997,-0.0806 1.353787,0.10804 1.992577,0.29672 -0.459628,0.35068 -0.919273,0.7014 -1.649018,1.0608 -0.319995,-0.35688 -0.369871,-0.72254 -0.343559,-1.35752 z"
   id="path42"
   style="stroke-width:0.850718" />
<path
   fill="#8fc23c"
   opacity="1"
   stroke="none"
   d="m 386.40059,220.11535 c -0.35166,-0.0984 -0.67996,-0.47486 -1.00826,-0.85132 0.36997,-0.0685 0.73995,-0.13686 1.24616,-0.0405 0.0193,0.31444 -0.0976,0.46406 -0.2379,0.89181 z"
   id="path43"
   style="stroke-width:0.850718" />
<path
   fill="#569f4e"
   opacity="1"
   stroke="none"
   d="m 223.05334,292.80685 c -0.35186,0.0987 -0.85348,-0.027 -1.5095,-0.35678 0.35032,-0.0919 0.85503,0.0203 1.5095,0.35678 z"
   id="path44"
   style="stroke-width:0.850718" />
<path
   fill="#327bb3"
   opacity="1"
   stroke="none"
   d="m 17.950893,376.59791 c 0.07983,-0.0577 0.192652,-0.10396 0.224015,-0.0554 0.03134,0.0485 -0.08535,0.24677 -0.08535,0.24677 0,0 -0.218509,-0.13368 -0.138687,-0.19136 z"
   id="path45"
   style="stroke-width:0.850718" />
<path
   fill="#a1ca3e"
   opacity="1"
   stroke="none"
   d="m 412.30762,143.09921 c -0.0403,-0.0846 0.0595,-0.21551 0.26243,-0.41951 0.0846,0.0968 0.01,0.24561 -0.26243,0.41951 z"
   id="path46"
   style="stroke-width:0.850718" />
<path
   fill="#327bb3"
   opacity="1"
   stroke="none"
   d="m 222.48349,376.57172 c 0.0271,-0.0733 -0.009,-0.0327 -0.0364,-0.0403 -0.027,-0.007 0.0938,0.1626 0.0938,0.1626 0,0 -0.0845,-0.0491 -0.0574,-0.12238 z"
   id="path47"
   style="stroke-width:0.850718" />
<path
   fill="#285492"
   opacity="1"
   stroke="none"
   d="m 59.628735,253.38626 c 2.473054,0.7281 4.946143,1.45619 7.425079,2.69134 -1.775074,5.88206 -0.476451,10.45054 4.246054,12.89234 2.433095,1.258 2.739496,2.78044 2.734664,4.94136 -0.01716,7.69613 0.03064,15.39266 0.101617,23.08863 0.05445,5.9026 -1.621672,12.58471 0.760724,17.49701 2.604896,5.37095 8.992122,9.10548 13.732317,13.55184 0.206298,0.19347 0.39417,0.45261 0.646694,0.54648 2.058499,0.76426 4.118178,2.10393 6.20016,2.14132 15.416056,0.27725 30.837376,0.2934 46.293786,0.69009 7.9688,10.83251 1.00599,19.7109 -8.30284,25.65164 -2.45413,0.0856 -4.53547,0.0672 -6.6168,0.0489 8.7e-4,-1.25413 0.002,-2.50831 0.32114,-4.17124 1.96169,-0.93843 4.16612,-1.01331 5.14059,-2.08552 2.59604,-2.85665 5.38549,-5.95063 3.79132,-10.25111 -1.43489,-3.87067 -3.95951,-6.67984 -8.58828,-7.23382 -4.63403,-0.5546 -8.10206,1.2841 -10.88112,5.35687 -0.68899,1.00968 -2.31236,2.01775 -3.53199,2.04641 -8.73859,0.20483 -17.485,0.23199 -26.225754,0.11112 -1.395785,-0.0193 -3.093095,-0.75256 -4.112032,-1.68261 -7.22848,-6.59809 -14.359991,-13.29327 -21.400459,-20.07045 -1.002323,-0.96482 -1.908536,-2.53929 -1.910593,-3.83292 -0.03274,-20.64242 0.08914,-41.28508 0.175723,-61.92764 z"
   id="path48"
   style="stroke-width:0.850718" />
<path
   fill="#f0f3f7"
   opacity="1"
   stroke="none"
   d="m 126.44316,357.16885 c 2.48836,-0.0233 4.5697,-0.005 7.41915,0.0217 10.92013,0.0405 21.0974,-0.32358 31.21494,0.25095 6.25951,0.35542 10.75258,-1.01256 13.42938,-6.51325 1.38269,-0.33635 2.74968,-0.75429 4.15079,-0.99495 6.17928,-1.06125 11.7169,2.85549 12.36574,8.69829 0.66782,6.01433 -3.84777,10.16628 -11.78988,10.56222 -2.77743,-1.58628 -5.71188,-2.84717 -7.4581,-4.97714 -1.52946,-1.86555 -2.79864,-2.63905 -5.21568,-2.62003 -14.54602,0.1146 -29.09316,0.0991 -43.98587,0.1796 -14.45808,0.003 -28.570165,-0.0457 -43.087278,-0.0256 -6.333805,0.81126 -10.330249,-1.92928 -14.281185,-5.84093 -10.265685,-10.16346 -21.009186,-19.89519 -31.374116,-29.97174 -1.426491,-1.38685 -2.468966,-3.7368 -2.521836,-5.66941 -0.248611,-9.08575 -0.08981,-18.18139 -0.160465,-27.65495 -0.02346,-2.57507 -0.0044,-4.77065 0.107201,-6.96189 0.176091,-3.45257 0.303381,-6.40601 -4.041567,-8.40105 -3.735272,-1.71511 -4.60529,-6.79702 -3.071264,-10.61471 1.507862,-3.75258 5.657165,-6.38811 9.88847,-6.28076 4.3957,0.11142 8.382533,3.08601 9.626684,7.18235 1.178685,3.88077 -0.249014,8.56214 -4.163186,10.38469 -3.133701,1.45916 -3.456155,3.33853 -3.436889,6.10652 0.08053,11.55318 -0.119325,23.10867 0.04368,34.66009 0.02556,1.81537 0.898544,4.06692 2.216862,5.3486 10.754881,10.45574 21.652116,20.7835 32.674367,30.98803 1.364579,1.26336 3.709712,2.21143 5.611087,2.22813 15.142538,0.13257 30.287625,0.005 45.838975,-0.0848 m 53.9252,5.41779 c 4.37254,3.12128 9.32492,2.09621 9.49673,-2.15758 0.0698,-1.72793 -1.05661,-4.23698 -2.4963,-5.07297 -1.42976,-0.83028 -4.27354,-0.59542 -5.89571,0.22866 -2.64475,1.34369 -2.73346,3.93324 -1.10472,7.00189 M 42.479407,267.69982 c -1.636571,-2.31776 -3.984452,-3.56744 -6.636835,-2.19816 -1.540136,0.79511 -3.211623,2.71273 -3.331754,4.23058 -0.118712,1.50049 1.260135,3.79951 2.681103,4.52262 1.444716,0.73515 4.441515,0.65738 5.492454,-0.30188 1.352955,-1.23495 1.445731,-3.70162 1.795032,-6.25316 z"
   id="path49"
   style="stroke-width:0.850718" />
<path
   fill="#2b609b"
   opacity="1"
   stroke="none"
   d="m 58.638106,211.06631 c 1.16103,0.90172 2.322077,1.80343 3.620674,2.812 -0.253286,0.65595 -0.562628,1.81301 -1.141256,2.83391 -0.403869,0.7126 -0.209213,3.3568 -2.202271,0.93324 -0.421183,1.39532 -1.534603,3.01086 -1.130647,4.14368 1.105998,3.10157 5.694883,4.96691 9.923999,4.70907 1.262743,4.96042 -0.545479,8.49086 -4.466085,11.29029 -1.723605,1.23068 -3.094084,2.90093 -4.810659,4.14251 -2.601369,1.88157 -4.029331,4.18895 -3.806017,7.32283 -1.519617,-1.22167 -3.464777,-2.19133 -4.475679,-3.71429 -2.582925,-3.89136 -5.243353,-7.44148 -10.972137,-8.23783 -0.319321,-12.9889 -0.30613,-25.59227 -0.256927,-38.19555 0.02293,-5.87883 0.115727,-11.75743 0.454069,-17.63267 1.104605,0.46649 2.111446,0.77619 2.727687,1.41962 2.411011,2.51744 4.698547,5.14037 6.96912,8.0573 0.722025,3.35967 3.812266,3.76071 7.276667,1.24575 0.72157,-0.002 1.133912,-0.003 1.635529,0.3675 0.277497,6.41599 0.465719,12.4593 0.653933,18.50264 m -9.409611,-2.08238 c 1.683392,0.15525 3.401788,0.55142 5.031969,0.3402 0.602437,-0.078 1.630163,-1.88508 1.365647,-2.38333 -0.727417,-1.37014 -5.472094,-0.3067 -6.397616,2.04313 z"
   id="path50"
   style="stroke-width:0.850718" />
<path
   fill="#f0f3f7"
   opacity="1"
   stroke="none"
   d="m 54.68787,249.63661 c -0.28534,-3.51665 1.142622,-5.82403 3.743991,-7.7056 1.716575,-1.24158 3.087054,-2.91183 4.810659,-4.14251 3.920606,-2.79943 5.728828,-6.32987 4.7575,-11.33357 1.206617,-1.03947 2.484276,-1.71924 4.224915,-2.64533 0.891226,6.88583 1.20484,12.6191 -5.125892,16.53961 -1.432829,0.88733 -2.38181,2.45165 -3.774811,3.42045 -3.258182,2.26603 -4.565462,5.16913 -3.76618,9.26387 -0.01593,20.9953 -0.137759,41.63796 -0.10504,62.28037 0.0018,1.29363 0.90827,2.8681 1.910593,3.83292 7.040468,6.77718 14.171979,13.47237 21.400459,20.07045 1.018937,0.93005 2.716247,1.66333 4.112032,1.68262 8.740754,0.12086 17.487164,0.0937 26.225754,-0.11113 1.21963,-0.0287 2.843,-1.03673 3.53199,-2.04641 2.77906,-4.07277 6.24709,-5.91147 10.88112,-5.35687 4.62877,0.55399 7.15339,3.36315 8.58828,7.23382 1.59417,4.30048 -1.19528,7.39446 -3.79132,10.25111 -0.97447,1.07221 -3.1789,1.14709 -5.14062,1.77144 -4.90327,0.0164 -8.3657,-1.66975 -10.67998,-5.62782 -0.55084,-0.94207 -2.53565,-1.57311 -3.87519,-1.59587 -8.74618,-0.14857 -17.502446,0.0753 -26.240688,-0.21664 -2.172037,-0.0725 -4.766534,-1.11798 -6.351303,-2.53182 -7.523659,-6.71229 -14.676799,-13.79402 -22.159904,-20.54855 -2.324213,-2.09788 -3.144835,-4.25783 -3.131399,-7.23206 0.09779,-21.62287 0.03151,-43.24639 -0.04499,-65.25248 m 66.113104,93.42393 c 1.51839,4.71468 5.35203,6.67555 8.33073,3.92265 1.37621,-1.27184 2.33096,-3.95151 1.91265,-5.64906 -0.3569,-1.44831 -2.8257,-3.14995 -4.58388,-3.41474 -3.11832,-0.46956 -4.95107,1.63791 -5.6595,5.14115 z"
   id="path51"
   style="stroke-width:0.850718" />
<path
   fill="#f0f3f7"
   opacity="1"
   stroke="none"
   d="m 39.097944,181.47005 c -0.0611,5.87869 -0.153892,11.75729 -0.176843,17.63612 -0.04919,12.60328 -0.06241,25.20665 -0.05742,38.19691 0.03291,4.36833 0.03291,8.34974 0.03291,12.67179 -1.66529,0 -2.990199,0 -4.832962,0 0,-5.82892 0,-11.57758 -0.07265,-17.70855 -0.0365,-15.55972 -3.15e-4,-30.73715 -0.03256,-46.29743 -0.0088,-4.35657 0.294137,-8.34446 0.03554,-12.29959 -0.216215,-3.30722 0.730385,-5.74837 3.521893,-7.81239 2.157655,-1.59537 3.959532,-3.62 6.045654,-5.70506 4.898543,-4.6729 9.735777,-9.03526 14.386645,-13.56822 0.886176,-0.86373 1.351432,-2.3775 1.459351,-3.63362 0.223131,-2.59656 -0.02101,-5.22562 0.10146,-7.83402 0.198105,-4.21861 0.527955,-8.03108 -4.634727,-10.58371 -3.377375,-1.66985 -3.827252,-5.62228 -2.918177,-9.60796 2.528462,-4.66078 5.998956,-7.45241 11.514466,-6.69727 4.713901,0.64538 7.847759,3.79518 8.452061,8.11168 0.7142,5.10178 -1.305092,8.19082 -7.19541,11.0884 -0.31588,5.44489 -0.237713,10.65063 -0.827082,15.78805 -0.268709,2.34202 -1.394288,4.89554 -2.947107,6.74044 -2.68498,3.18992 -6.006037,5.90217 -9.455435,9.1783 -2.361528,2.19614 -4.086306,4.36877 -6.339871,5.79717 -6.535542,4.1424 -7.436703,9.91925 -6.059808,16.53896 m 27.73407,-61.46962 c 0.833018,-4.16489 -0.560701,-7.14596 -3.930225,-7.02297 -2.033971,0.0742 -5.023584,1.4712 -5.703164,3.01327 -0.676928,1.53611 0.347322,4.67211 1.78269,5.90065 2.469106,2.11332 5.381593,1.19383 7.850699,-1.89095 z"
   id="path52"
   style="stroke-width:0.850718" />
<path
   fill="#f0f3f7"
   opacity="1"
   stroke="none"
   d="m 141.73307,331.12813 c -15.41965,-0.0981 -30.84097,-0.1143 -46.257026,-0.39155 -2.081982,-0.0374 -4.141661,-1.37706 -6.20016,-2.14132 -0.252524,-0.0939 -0.440396,-0.35301 -0.646694,-0.54648 -4.740195,-4.44636 -11.127421,-8.18089 -13.732317,-13.55184 -2.382396,-4.9123 -0.706287,-11.59441 -0.760724,-17.49701 -0.07099,-7.69597 -0.1188,-15.3925 -0.101617,-23.08863 0.0053,-2.16092 -0.301569,-3.68336 -2.734664,-4.94136 -4.722505,-2.4418 -6.021128,-7.01028 -4.060878,-12.6378 2.311897,-1.7523 4.444474,-3.25204 6.825216,-4.8744 0.876057,-0.15497 1.504019,-0.18732 2.633449,-0.0267 1.007532,0.18716 1.513552,0.18136 2.019607,0.17561 6.466189,2.42074 8.071344,4.8595 7.752365,12.16757 -1.961695,2.24725 -4.054549,4.0204 -5.787309,6.06564 -0.924244,1.09088 -1.457006,2.60984 -1.745051,4.01273 -0.293603,1.42989 -0.07038,2.9544 0.0018,4.80455 0.0079,10.96089 -0.11276,21.5549 -0.05366,32.14805 0.007,1.19352 1.010928,2.38911 1.590704,3.56698 0.114729,0.23305 0.441429,0.3643 0.608223,0.58453 7.236472,9.55465 16.820143,13.1237 29.271676,11.58022 7.44531,-0.92298 15.12889,-0.1306 23.11019,-0.18526 7.07555,-0.0244 13.74907,0.1361 20.4144,-0.0186 1.24133,-0.0288 2.5419,-1.21592 3.65305,-2.05907 1.99573,-1.51422 3.86858,-3.17296 6.03839,-4.90185 6.30354,-0.90436 11.21084,1.4907 12.95857,6.07412 1.84685,4.84346 -0.14385,9.21898 -6.20889,12.51946 -4.9567,1.16844 -9.27979,0.60188 -11.42704,-3.15368 -2.07627,-3.63148 -4.74801,-4.15459 -8.42917,-3.88133 -2.8983,0.21508 -5.82051,0.14236 -8.73212,0.19747 m 19.68474,-3.33682 c 1.03832,1.90561 1.6396,4.35472 3.26982,5.52427 1.07327,0.77003 4.13816,0.27039 5.37874,-0.71169 1.25733,-0.99534 2.23924,-3.55926 1.75178,-4.93263 -0.56295,-1.58613 -2.90742,-3.68759 -4.39938,-3.63324 -1.96592,0.0717 -3.85499,2.02431 -6.00096,3.75329 M 72.03111,258.21792 c -1.522051,2.70143 -1.311017,5.42662 1.649526,6.68559 1.741846,0.74076 4.690152,0.566 6.29796,-0.3918 2.667771,-1.5894 2.934467,-4.47522 0.753169,-6.80024 -2.590147,-2.76072 -5.532334,-2.63633 -8.700655,0.50645 z"
   id="path53"
   style="stroke-width:0.850718" />
<path
   fill="#2b609b"
   opacity="1"
   stroke="none"
   d="m 141.76983,331.42667 c 2.87486,-0.35365 5.79707,-0.28093 8.69537,-0.49601 3.68116,-0.27326 6.3529,0.24985 8.42917,3.88133 2.14724,3.75556 6.47034,4.32212 11.18515,3.29347 0.94243,0.97631 1.44031,2.06976 2.10797,3.06127 2.06681,3.06921 4.19821,6.09956 6.31182,9.45323 -2.66948,5.80894 -7.16255,7.17691 -13.42206,6.82149 -10.11754,-0.57452 -20.29481,-0.21043 -30.84219,-0.35486 8.54076,-5.94902 15.50357,-14.82741 7.53477,-25.65992 z"
   id="path54"
   style="stroke-width:0.850718" />
<path
   fill="#2267a4"
   opacity="1"
   stroke="none"
   d="m 39.37517,181.4735 c -1.654121,-6.62316 -0.75296,-12.40001 5.782582,-16.54241 2.253565,-1.4284 3.978343,-3.60103 6.202138,-5.55076 0.286128,2.87304 1.99781,2.64158 3.943154,1.48344 1.174335,-0.69913 2.149138,-1.69722 3.980741,-3.18346 1.38774,6.88725 6.284226,9.28329 12.240474,10.51728 0.922905,0.19123 1.676293,1.05048 2.54673,1.5394 6.569602,3.69027 6.572622,3.68547 5.159129,10.52286 -1.05473,1.71143 -1.75165,3.09343 -2.711415,4.4834 -0.788752,0.002 -1.314651,-0.004 -1.908746,-0.3623 -0.614377,-1.50329 -1.160549,-2.65389 -1.70672,-3.80446 -0.594874,1.12756 -1.404888,2.20612 -1.709687,3.39977 -0.206306,0.80797 0.298007,1.7778 0.492505,2.92939 0.0035,0.76142 -5.34e-4,1.26871 -0.407344,1.83435 -4.453717,0.0584 -8.504878,0.0584 -12.7567,0.0584 -0.241189,1.30487 -0.434164,2.34873 -0.62714,3.39262 -0.412315,0.002 -0.824657,0.003 -1.644693,-0.31284 -2.643595,-0.63247 -4.879469,-0.9467 -7.115344,-1.26094 -2.33343,-2.58375 -4.620966,-5.20668 -7.031977,-7.72411 -0.616241,-0.64344 -1.623082,-0.95314 -2.727687,-1.41962 m 26.07461,1.61529 c -0.01497,0.40759 -0.188538,0.8943 -0.01365,1.20721 0.438146,0.78394 1.034133,1.48914 1.566824,2.22594 0.603628,-0.56759 1.756613,-1.18371 1.706177,-1.69359 -0.142215,-1.43769 -0.778764,-2.8318 -1.220509,-4.24307 -0.674932,0.60973 -1.349865,1.21946 -2.038846,2.50351 m -5.714464,1.1368 c 0.721307,0.72387 1.442606,1.44778 2.163913,2.17168 0.335541,-1.20056 0.950338,-2.41075 0.90426,-3.59812 -0.02871,-0.73932 -1.056716,-1.44407 -1.636246,-2.16434 -0.476031,0.96426 -0.95208,1.92852 -1.431927,3.59078 z"
   id="path55"
   style="stroke-width:0.850718" />
<path
   fill="#f0f3f7"
   opacity="1"
   stroke="none"
   d="m 76.781529,184.73525 c 0.696939,-1.38197 1.393859,-2.76397 2.448248,-4.1567 0.576545,0.91998 0.795614,1.85071 1.091572,3.06679 -0.848729,1.1596 -1.774357,2.03384 -3.044636,2.55674 -0.394818,-0.72314 -0.444992,-1.09499 -0.495184,-1.46683 z"
   id="path56"
   style="stroke-width:0.850718" />
<path
   fill="#fefefe"
   opacity="1"
   stroke="none"
   d="m 57.984173,192.56367 c 0.103674,-1.41654 0.296649,-2.46041 0.537838,-3.76528 4.251822,0 8.302983,0 13.087059,0.0199 1.406708,-0.0321 2.080459,-0.084 2.754245,-0.136 2.426574,0 4.853183,0 7.778599,0 0,7.04896 0,13.58164 0.07178,20.49674 -1.28404,0.87249 -2.628556,1.75062 -3.997644,1.78619 -6.251374,0.16242 -12.509629,0.0884 -19.171691,0.10015 -0.594464,-6.04246 -0.782686,-12.08577 -1.060183,-18.50176 z"
   id="path57"
   style="stroke-width:0.850718" />
<path
   fill="#f0f3f7"
   opacity="1"
   stroke="none"
   d="m 85.257986,209.57069 c -0.252892,-3.51119 1.499826,-4.09433 6.3521,-1.93846 -1.075834,3.48043 -3.949379,1.36138 -6.3521,1.93846 z"
   id="path58"
   style="stroke-width:0.850718" />
<path
   fill="#f0f3f7"
   opacity="1"
   stroke="none"
   d="m 65.594647,214.28113 c 2.057429,-1.40188 3.398506,-1.24781 3.289431,1.30136 -0.07677,1.79291 0.856957,4.46463 -3.355168,3.45758 0,-1.49749 0,-2.96434 0.06574,-4.75894 z"
   id="path59"
   style="stroke-width:0.850718" />
<path
   fill="#f0f3f7"
   opacity="1"
   stroke="none"
   d="m 77.135636,218.38762 c -0.06145,-0.75024 -0.188109,-1.20886 -0.03755,-1.5621 0.502125,-1.17806 1.103704,-2.31834 1.667163,-3.4731 0.552422,1.45687 1.542027,2.90909 1.559524,4.37166 0.02967,2.47552 -1.558885,2.08201 -3.189127,0.66354 z"
   id="path60"
   style="stroke-width:0.850718" />
<path
   fill="#fefefe"
   opacity="1"
   stroke="none"
   d="m 481.96997,104.13237 c -3.89513,3.48102 -7.53739,4.01311 -10.72237,1.8175 -2.89174,-1.99344 -4.02698,-5.85963 -2.59869,-8.850306 1.72747,-3.617169 6.13645,-5.26206 9.88904,-3.689431 4.11898,1.72619 5.49309,5.693946 3.43202,10.722237 z"
   id="path61"
   style="stroke-width:0.850718" />
<path
   fill="#fefefe"
   opacity="1"
   stroke="none"
   d="m 493.63798,132.82862 c 5.50469,1.382 8.13618,4.03715 7.66331,7.77707 -0.44343,3.50673 -2.56038,5.77836 -6.39374,6.29892 -4.16717,0.56595 -7.60615,-1.62007 -8.55649,-5.34672 -1.03326,-4.05204 1.48192,-7.20968 7.28692,-8.72927 z"
   id="path62"
   style="stroke-width:0.850718" />
<path
   fill="#fefefe"
   opacity="1"
   stroke="none"
   d="m 471.8932,235.51058 c -0.0514,5.1999 -1.88188,7.78069 -5.99439,8.56798 -3.59354,0.68792 -6.24202,-0.82655 -8.02378,-3.66461 -1.95929,-3.12085 -1.40425,-6.09456 1.23489,-8.62981 4.10749,-3.94572 10.07544,-2.32492 12.78328,3.72644 z"
   id="path63"
   style="stroke-width:0.850718" />
<path
   fill="#fefefe"
   opacity="1"
   stroke="none"
   d="m 436.63416,210.36944 c 4.86417,1.45166 6.84365,3.8192 6.21921,7.30082 -0.54574,3.04314 -2.5467,4.90475 -5.80922,5.19029 -3.51088,0.30726 -5.7949,-1.47477 -6.91764,-4.48274 -1.36984,-3.66975 1.14786,-6.85591 6.50765,-8.00837 z"
   id="path64"
   style="stroke-width:0.850718" />
<path
   fill="#fefefe"
   opacity="1"
   stroke="none"
   d="m 448.86117,125.28999 c -4.20382,-0.30306 -6.05225,-2.62926 -5.1493,-5.83848 0.51118,-1.81695 3.06847,-4.4663 4.52967,-4.37034 1.98803,0.1306 4.7908,2.19457 5.48417,4.02445 1.19706,3.15949 -0.98886,5.40695 -4.86454,6.18437 z"
   id="path65"
   style="stroke-width:0.850718" />
<path
   fill="#f0f3f7"
   opacity="1"
   stroke="none"
   d="m 90.643502,196.06528 c 0.333326,-0.004 0.508007,0.289 0.670818,0.35703 -0.403974,0.9683 -0.832378,2.49503 -1.566098,2.63961 -1.577215,0.31085 -3.324804,-0.0176 -4.966933,-0.28224 -0.233363,-0.0376 -0.525233,-1.27487 -0.31679,-1.78403 0.188756,-0.46093 1.002971,-0.92142 1.578737,-0.96777 1.410823,-0.11352 2.843196,0.0121 4.600266,0.0374 z"
   id="path66"
   style="stroke-width:0.850718" />
<path
   fill="#f0f3f7"
   opacity="1"
   stroke="none"
   d="m 89.673985,201.36052 c 0.755525,0.8302 1.160785,1.64554 1.56602,2.46089 -1.952505,0.18015 -3.903757,0.43078 -5.858957,0.46268 -0.28527,0.005 -0.589605,-1.03429 -0.885134,-1.59035 1.03008,-0.45137 2.034645,-0.97165 3.101296,-1.32434 0.51529,-0.17042 1.147323,-0.0257 2.076775,-0.009 z"
   id="path67"
   style="stroke-width:0.850718" />
<path
   fill="#f0f3f7"
   opacity="1"
   stroke="none"
   d="m 90.842517,191.1168 c 0.166339,0.81975 0.113294,1.38596 0.03834,2.2359 -1.460928,0.31345 -2.924026,0.50103 -4.329264,0.30962 -0.757476,-0.1032 -1.415891,-0.85516 -2.118974,-1.31441 0.630798,-0.56039 1.199142,-1.4967 1.905674,-1.60147 1.387609,-0.20566 2.852115,0.0513 4.504207,0.37036 z"
   id="path68"
   style="stroke-width:0.850718" />
<path
   fill="#327bb3"
   opacity="1"
   stroke="none"
   d="m 74.355297,188.41911 c -0.665768,0.31522 -1.339519,0.36719 -2.343663,0.34088 -0.326113,-0.58563 -0.321833,-1.09292 0.0079,-1.89663 0.996844,-0.34066 1.668118,-0.38487 2.375131,-0.3915 0.03571,0.0376 0.102387,0.11662 0.102387,0.11662 -0.04998,0.52246 -0.09991,1.0449 -0.141821,1.83063 z"
   id="path69"
   style="stroke-width:0.850718" />
<path
   fill="#327bb3"
   opacity="1"
   stroke="none"
   d="m 76.518703,184.74325 c 0.313018,0.36384 0.363192,0.73569 0.421419,1.39005 -0.608915,0.29841 -1.225936,0.31429 -2.142967,0.39269 -0.300037,0.0625 -0.366685,-0.0165 -0.344758,-0.33773 0.08986,-0.699 0.157822,-1.07683 0.225757,-1.45462 0.525898,0.006 1.051797,0.0117 1.840549,0.01 z"
   id="path70"
   style="stroke-width:0.850718" />
<path
   fill="#24619d"
   opacity="1"
   stroke="none"
   d="m 78.666957,251.3548 c -0.45575,0.25757 -0.96177,0.26336 -1.65631,0.10456 0.409672,-0.2284 1.00783,-0.29234 1.65631,-0.10456 z"
   id="path71"
   style="stroke-width:0.850718" />
<path
   fill="#2b609b"
   opacity="1"
   stroke="none"
   d="m 180.19083,362.31292 c -1.45121,-2.79493 -1.3625,-5.38448 1.28225,-6.72818 1.62217,-0.82407 4.46596,-1.05894 5.89571,-0.22865 1.43969,0.83599 2.56608,3.34504 2.49631,5.07297 -0.17182,4.25379 -5.1242,5.27886 -9.67427,1.88386 z"
   id="path72"
   style="stroke-width:0.850718" />
<path
   fill="#285492"
   opacity="1"
   stroke="none"
   d="m 42.622559,268.00754 c -0.492453,2.24382 -0.585229,4.71049 -1.938184,5.94544 -1.050939,0.95926 -4.047738,1.03703 -5.492454,0.30188 -1.420968,-0.72311 -2.799815,-3.02213 -2.681103,-4.52262 0.120131,-1.51785 1.791618,-3.43547 3.331754,-4.23058 2.652383,-1.36928 5.000264,-0.1196 6.779987,2.50588 z"
   id="path73"
   style="stroke-width:0.850718" />
<path
   fill="#f0f3f7"
   opacity="1"
   stroke="none"
   d="m 49.115918,208.64655 c 1.038099,-2.01245 5.782776,-3.07589 6.510193,-1.70575 0.264516,0.49825 -0.76321,2.30523 -1.365647,2.38333 -1.630181,0.21122 -3.348577,-0.18495 -5.144546,-0.67758 z"
   id="path74"
   style="stroke-width:0.850718" />
<path
   fill="#f0f3f7"
   opacity="1"
   stroke="none"
   d="m 49.071977,190.95042 c 2.298732,-0.0189 4.534606,0.29529 6.868973,0.92752 -3.056707,2.83319 -6.146948,2.43215 -6.868973,-0.92752 z"
   id="path75"
   style="stroke-width:0.850718" />
<path
   fill="#2b609b"
   opacity="1"
   stroke="none"
   d="m 120.81842,342.74075 c 0.69099,-3.18345 2.52374,-5.29092 5.64205,-4.82136 1.75819,0.26479 4.22698,1.96643 4.58389,3.41474 0.4183,1.69755 -0.53645,4.37722 -1.91265,5.64906 -2.97871,2.7529 -6.81234,0.79203 -8.31329,-4.24244 z"
   id="path76"
   style="stroke-width:0.850718" />
<path
   fill="#327bb3"
   opacity="1"
   stroke="none"
   d="m 66.648904,120.28267 c -2.285996,2.80254 -5.198483,3.72203 -7.66759,1.60871 -1.435367,-1.22854 -2.459617,-4.36454 -1.782689,-5.90065 0.67958,-1.54207 3.669193,-2.93907 5.703164,-3.01327 3.369524,-0.12299 4.763242,2.85808 3.747115,7.30521 z"
   id="path77"
   style="stroke-width:0.850718" />
<path
   fill="#2b609b"
   opacity="1"
   stroke="none"
   d="m 161.52973,327.49877 c 2.03406,-1.43644 3.92313,-3.38909 5.88904,-3.46075 1.49197,-0.0543 3.83644,2.04711 4.39939,3.63324 0.48745,1.37337 -0.49446,3.93729 -1.75178,4.93263 -1.24058,0.98208 -4.30547,1.48172 -5.37874,0.71169 -1.63022,-1.16955 -2.2315,-3.61866 -3.15791,-5.81681 z"
   id="path78"
   style="stroke-width:0.850718" />
<path
   fill="#2b609b"
   opacity="1"
   stroke="none"
   d="m 72.233618,257.97009 c 2.965813,-2.89495 5.908,-3.01934 8.498147,-0.25862 2.181298,2.32502 1.914602,5.21084 -0.753169,6.80024 -1.607808,0.9578 -4.556114,1.13256 -6.29796,0.3918 -2.960543,-1.25897 -3.171577,-3.98416 -1.447018,-6.93342 z"
   id="path79"
   style="stroke-width:0.850718" />
<path
   fill="#f0f3f7"
   opacity="1"
   stroke="none"
   d="m 65.456809,182.75163 c 0.681952,-0.94689 1.356885,-1.55662 2.031817,-2.16634 0.441744,1.41127 1.078294,2.80538 1.220508,4.24306 0.05042,0.50989 -1.102548,1.126 -1.706176,1.69359 -0.532692,-0.73679 -1.128678,-1.44199 -1.566825,-2.22593 -0.174891,-0.31292 -0.0018,-0.79962 0.02066,-1.54438 z"
   id="path80"
   style="stroke-width:0.850718" />
<path
   fill="#f0f3f7"
   opacity="1"
   stroke="none"
   d="m 74.609957,184.38092 c 2.62e-4,0.73051 -0.06766,1.10834 -0.193299,1.76977 -0.728941,0.3278 -1.400214,0.37201 -2.40505,0.45853 -0.520051,-0.85516 -1.024364,-1.82499 -0.818058,-2.63296 0.304799,-1.19365 1.114813,-2.27221 1.709687,-3.39977 0.546171,1.15057 1.092343,2.30117 1.70672,3.80443 z"
   id="path81"
   style="stroke-width:0.850718" />
<path
   fill="#f0f3f7"
   opacity="1"
   stroke="none"
   d="m 59.737215,183.87658 c 0.477948,-1.31324 0.953996,-2.2775 1.430027,-3.24176 0.57953,0.72027 1.607554,1.42502 1.636247,2.16434 0.04604,1.18736 -0.56872,2.39756 -0.90426,3.59812 -0.721308,-0.72391 -1.442606,-1.44781 -2.162014,-2.5207 z"
   id="path82"
   style="stroke-width:0.850718" />
</svg>
