<svg id="Agrupar_1" data-name="Agrupar 1" xmlns="http://www.w3.org/2000/svg" width="1980" height="1980" viewBox="0 0 1980 1980">
  <defs>
    <style>
      .cls-1, .cls-2 {
        fill: #2929a5;
      }

      .cls-1, .cls-2, .cls-4 {
        stroke: #010001;
        stroke-width: 1px;
      }

      .cls-1, .cls-3, .cls-4 {
        fill-rule: evenodd;
      }

      .cls-3, .cls-4, .cls-5 {
        fill: #fff;
      }

      .cls-5 {
        font-size: 190px;
        font-family: "Lucida Console";
      }
    </style>
  </defs>
  <path id="Elipse_1" data-name="Elipse 1" class="cls-1" d="M990,457c393.78,0,713,309.819,713,692,0,165.86-60.12,318.09-160.37,437.28-0.61.73-.89,2.19-1.84,2.18-297.35-1.06-827.327.19-1101.1,0.57-1.274,0-1.647-1.95-2.467-2.92C337.063,1466.94,277,1314.78,277,1149,277,766.819,596.221,457,990,457Z"/>
  <circle id="Elipse_2" data-name="Elipse 2" class="cls-2" cx="214" cy="1560" r="80"/>
  <circle id="Elipse_2_copiar" data-name="Elipse 2 copiar" class="cls-2" cx="146" cy="1340" r="76"/>
  <circle id="Elipse_2_copiar_2" data-name="Elipse 2 copiar 2" class="cls-2" cx="133" cy="1117" r="72.188"/>
  <circle id="Elipse_2_copiar_3" data-name="Elipse 2 copiar 3" class="cls-2" cx="173.984" cy="890.985" r="68.578"/>
  <circle id="Elipse_2_copiar_4" data-name="Elipse 2 copiar 4" class="cls-2" cx="270" cy="689.985" r="65.125"/>
  <circle id="Elipse_2_copiar_5" data-name="Elipse 2 copiar 5" class="cls-2" cx="440" cy="516.985" r="61.875"/>
  <circle id="Elipse_2_copiar_6" data-name="Elipse 2 copiar 6" class="cls-2" cx="646" cy="392" r="59"/>
  <circle id="Elipse_2_copiar_7" data-name="Elipse 2 copiar 7" class="cls-2" cx="893" cy="332" r="55.844"/>
  <circle id="Elipse_2_copiar_8" data-name="Elipse 2 copiar 8" class="cls-2" cx="1142" cy="342" r="52.81"/>
  <circle id="Elipse_2_copiar_9" data-name="Elipse 2 copiar 9" class="cls-2" cx="1370" cy="407" r="50.41"/>
  <circle id="Elipse_2_copiar_10" data-name="Elipse 2 copiar 10" class="cls-2" cx="1558" cy="529" r="47.84"/>
  <circle id="Elipse_2_copiar_11" data-name="Elipse 2 copiar 11" class="cls-2" cx="1700" cy="691" r="45.44"/>
  <circle id="Elipse_2_copiar_12" data-name="Elipse 2 copiar 12" class="cls-2" cx="1798" cy="891" r="43.19"/>
  <circle id="Elipse_2_copiar_13" data-name="Elipse 2 copiar 13" class="cls-2" cx="1831" cy="1112" r="40.81"/>
  <circle id="Elipse_2_copiar_14" data-name="Elipse 2 copiar 14" class="cls-2" cx="1804" cy="1348" r="39"/>
  <circle id="Elipse_2_copiar_15" data-name="Elipse 2 copiar 15" class="cls-2" cx="1734" cy="1572" r="36.81"/>
  <path id="ELETROTÉCNICA_Forma" data-name="ELETROTÉCNICA Forma" class="cls-3" d="M483,1279.22l-12.345,4.1,19.82,59.72-37.537,12.46-15.724-47.38-12.346,4.1,15.724,47.38-32.449,10.76-18.548-55.88-12.345,4.09,24,72.32,107.025-35.51ZM473.9,1120.47l-13.006-.19-0.847,60.73-99.746-1.39-0.242,17.31,112.753,1.58Zm39.965-157.264-12.362-4.047-19.579,59.811-37.588-12.31,15.532-47.444-12.363-4.047-15.532,47.441-32.492-10.634,18.321-55.964-12.362-4.048-23.708,72.416L488.9,1039.47Zm62.7-107.356-81.487-57.542,25.045-35.467-10.626-7.5-60.026,85.005,10.625,7.5,24.994-35.394,81.487,57.542ZM666.525,760.6l-27.933-37.716,12.572-9.311L707.7,730.1l16.843-12.474-61.834-18.077Q669.37,686.2,669.25,676.5t-7.13-19.163q-10.2-13.773-27.365-9.482-8.079,1.94-23.9,13.655L585.5,680.285,652.611,770.9Zm-59.371-80.164,8.546-6.33q13.278-9.834,20.372-10.593t12.912,7.1a19.767,19.767,0,0,1,3.34,18.243q-2.9,9.822-14.129,18.137l-7.345,5.441Zm180.7-6.743q17.418,11.365,38.748,4.7t29.185-25.917q7.857-19.255-.212-45.1-8.043-25.755-25.462-37.121t-38.747-4.7q-21.33,6.66-29.186,25.918t0.187,45.012Q770.435,662.327,787.852,673.69ZM777.34,596.13q3.932-13.8,17.859-18.146t25.054,4.746q11.125,9.093,17.7,30.151,6.6,21.143,2.627,34.951t-17.9,18.159q-13.928,4.349-25.011-4.758t-17.687-30.249Q773.407,609.927,777.34,596.13Zm215.387,57.056,1.916-99.737,43.407,0.834,0.25-13-104.04-2-0.25,13.006,43.322,0.832-1.917,99.738Zm192.923,35.946,3.74-12.461-60.29-18.059,11.35-37.887,47.83,14.326,3.73-12.461-47.82-14.326,9.81-32.751,56.41,16.9,3.73-12.46-72.99-21.868L1108.79,666.1Zm-3.34-128.9,33.58-10.31-22.77-6.821-24.25,13.1ZM1335.52,758.4q-17.085-4.267-27.01-11.237-16.4-11.517-19.51-29.27t8.41-34.153q11.415-16.254,28.04-20.266,16.6-4.011,30.93,6.041,12.36,8.688,22.01,25.235l9.15-13.019a112.024,112.024,0,0,0-23.25-22.558q-21.585-15.153-44.46-11.026t-38.18,25.921q-15.105,21.507-10.92,44.15t26.19,38.1q12.585,8.838,30.42,13.733Zm49.16,77.652,66.87-48.649,0.15,0.213-36.25,90.725,9.41,12.933,91.47-66.55L1508,813.283l-66.25,48.2-0.1-.142,35.84-90-9.67-13.287-91.46,66.55Zm100.1,201.657,12.39-3.98-9.28-28.87,82.58-26.545,9.28,28.865,12.39-3.98-23.86-74.217-12.39,3.981,9.28,28.867-82.58,26.55-9.28-28.868-12.39,3.981Zm31.51,168.14q-6.48-16.395-6.57-28.51-0.18-20.04,12.46-32.89t32.67-13.03q19.875-.165,32.79,11.02t13.08,28.67q0.135,15.12-7.72,32.59l15.91-.13a111.881,111.881,0,0,0,4.82-32.04q-0.225-26.37-16.88-42.57t-43.29-15.98q-26.28.225-42.27,16.79t-15.76,43.47q0.135,15.375,6.52,32.73Zm-29.4,74.71,24.17,18.14-14.12,49.56-30.05,2.51-5.02,17.63,120.64-11.89,4.74-16.65-96.27-73.66Zm81.47,61.14-57.49,5.14,11.28-39.6Z"/>
  <path id="Forma_1" data-name="Forma 1" class="cls-4" d="M725,912l55,21s17.105-67.667,83-71c67.169-3.4,96,45.13,97.264,45.846L960,928h21s51.94,62.789,144,51c91.1-11.668,122.45-92.8,122-93l-60-16s-19.43,45.259-76,50c-55.74,4.671-79-30-79-30V869h-20s-66.521-81.389-159-69C739.349,815.225,725,912,725,912Z"/>
  <path id="Forma_1-2" data-name="Forma 1" class="cls-4" d="M730,1092l55,21s17.105-67.67,83-71c67.169-3.4,96,45.13,97.264,45.85L965,1108h21s51.94,62.79,144,51c91.1-11.67,122.45-92.8,122-93l-60-16s-19.43,45.26-76,50c-55.74,4.67-79-30-79-30v-21h-20s-66.521-81.389-159-69C744.349,995.225,730,1092,730,1092Z"/>
  <path id="Forma_1-3" data-name="Forma 1" class="cls-4" d="M730,1280l55,21s17.105-67.67,83-71c67.169-3.4,96,45.13,97.264,45.85L965,1296h21s51.94,62.79,144,51c91.1-11.67,122.45-92.8,122-93l-60-16s-19.43,45.26-76,50c-55.74,4.67-79-30-79-30v-21h-20s-66.521-81.39-159-69C744.349,1183.23,730,1280,730,1280Z"/>
  <text id="UTFPR" class="cls-5" x="711.026" y="1552.665">UTFPR</text>
</svg>
